<svg id="Layer_1" xmlns="http://www.w3.org/2000/svg" xmlns:xlink="http://www.w3.org/1999/xlink" viewBox="0 0 250 250"><style>.st0{opacity:6.000000e-02;fill:#1B75BB;} .st1{fill:#83CAA3;} .st2{fill:#26A9E0;} .st3{fill:#231F20;} .st4{fill:#5A4A42;} .st5{fill:#E4B093;} .st6{fill:#E8BCA3;} .st7{fill:#E6B499;} .st8{fill:#3C3129;} .st9{opacity:0.1;} .st10{fill:#C33927;} .st11{fill:#E44C25;} .st12{fill:#FFFFFF;} .st13{fill:#020303;} .st14{fill:#929497;} .st15{fill:#EE4036;} .st16{fill:#BE1E2D;} .st17{fill:#1B75BB;} .st18{fill:#95A93B;} .st19{clip-path:url(#SVGID_2_);fill:#E0D4CC;} .st20{clip-path:url(#SVGID_4_);fill:#E4B093;} .st21{fill:#44352E;}</style><circle class="st0" cx="125" cy="125" r="125"/><path class="st1" d="M.1 131C3.3 197.2 58 250 125 250s121.7-52.8 124.9-119H.1z"/><path class="st2" d="M47.983 143.198l79.796-3.996.534 10.686-79.796 3.996z"/><path class="st3" d="M104.1 1.8l-37 153.3.9.2L105 1.6c-.2 0-.6.1-.9.2z"/><path class="st4" d="M106.1 1.4c-.3.1-.7.1-1 .2 0 .4.1.9.3 1.5 5.1 24.4 25.9 62.9 25.9 140.5 0 51.1-7.6 81.9-15.2 106.1 1 .1 2 .1 3 .2 8.4-27.7 17.5-67.4 17.5-106.3-.1-65.5-25-133.5-30.5-142.2z"/><path class="st5" d="M84 99.4c.4 1.5 2.8 2.1 5.4 1.4 2.6-.7 4.5-2.4 4.1-3.9-.4-1.5-2.8-2.1-5.4-1.4-2.7.7-4.5 2.4-4.1 3.9z"/><path class="st2" d="M44.7 139.9h-4.8c-14.8 0-27 12.3-27 27.3v13c12.5 25.3 33.3 45.7 58.8 57.8v-70.8c0-15-12.2-27.3-27-27.3z"/><path class="st6" d="M51.8 126.1V141c0 5.4-4.3 9.7-9.6 9.7s-9.6-4.3-9.6-9.7v-14.9h19.2"/><path class="st7" d="M51.8 138v3c0 5.3-4.2 9.7-9.5 9.7h-.2c-5.2 0-9.5-4.3-9.5-9.6V138.2c3 .7 6.2 1.1 9.4 1.1 3.4-.1 6.7-.5 9.8-1.3"/><path class="st6" d="M1 93.5C1 118.1 20.6 138 44.9 138c24.2 0 43.9-19.9 43.9-44.5S69.1 49 44.9 49C20.6 49 1 68.9 1 93.5"/><path class="st8" d="M.5 89.2c0 36 21.8 46 37.9 46s42.9-12.5 42.9-46C81.2 65.2 63.2 44 40.9 44 18.6 44 .5 65.2.5 89.2"/><ellipse class="st8" cx="44.9" cy="56.7" rx="28.4" ry="12.7"/><ellipse class="st9" cx="196.6" cy="166.2" rx="39.5" ry="8"/><path d="M224.8 165.9c-.3.3-.9.3-1.2 0l-10.2-10.2c-.3-.3-.3-.9 0-1.2.3-.3.9-.3 1.2 0l10.2 10.2c.4.3.4.9 0 1.2zM181 154c.3.3.3.9 0 1.2l-10.2 10.2c-.3.3-.9.3-1.2 0-.3-.3-.3-.9 0-1.2l10.2-10.2c.3-.3.9-.3 1.2 0z"/><path class="st10" d="M237.6 127c0 21.8-17.7 39.5-39.5 39.5s-39.5-17.7-39.5-39.5 17.7-39.5 39.5-39.5 39.5 17.7 39.5 39.5"/><path class="st11" d="M236.1 126.1c0 21.8-17.7 39.5-39.5 39.5s-39.5-17.7-39.5-39.5 17.7-39.5 39.5-39.5c21.9 0 39.5 17.6 39.5 39.5"/><path class="st12" d="M226.3 126.1c0 16.4-13.3 29.6-29.6 29.6-16.4 0-29.6-13.3-29.6-29.6s13.3-29.6 29.6-29.6c16.3-.1 29.6 13.2 29.6 29.6"/><path class="st11" d="M216.4 126.1c0 10.9-8.8 19.7-19.7 19.7-10.9 0-19.7-8.8-19.7-19.7 0-10.9 8.8-19.7 19.7-19.7 10.8-.1 19.7 8.8 19.7 19.7"/><path class="st12" d="M206.5 126.1c0 5.5-4.4 9.9-9.9 9.9s-9.9-4.4-9.9-9.9 4.4-9.9 9.9-9.9 9.9 4.4 9.9 9.9"/><path class="st13" d="M199.2 126.1c0 1.4-1.2 2.6-2.6 2.6-1.4 0-2.6-1.2-2.6-2.6s1.2-2.6 2.6-2.6c1.5 0 2.6 1.1 2.6 2.6"/><path class="st3" d="M71 167.4l-.9.3 22.6 78c.4.1.7.2 1.1.3L71 167.4z"/><path class="st6" d="M134.4 154.1c-3.2.2-6-2.4-6.2-5.6l-.3-6.9c-.2-3.2 2.4-6 5.6-6.2 3.2-.2 6 2.4 6.2 5.6l.3 6.9c.2 3.3-2.3 6-5.6 6.2z"/><g><path class="st14" d="M150.8 135.3c.2.8-.3 1.6-1 1.8l-81.5 21.7c-.8.2-1.6-.3-1.8-1-.2-.8.3-1.6 1-1.8l81.5-21.7c.8-.3 1.6.2 1.8 1"/><path class="st15" d="M90.9 149.7l-7.4-5.2-19.5 5.2 7.4 5.2M91.6 152.5l-3.7 8.2-19.5 5.2 3.8-8.1"/><path class="st16" d="M69.9 153.8l1.5 1.1 19.5-5.2-1.5-1.1"/></g><g><path class="st17" d="M13 164.8c.9 4.3 4 5.1 6.7 7.8 8.4 8.2 41.3-1.9 50.8-5l-8.6-11c-14.1 3.8-34 8.7-35.2 7.6-1.4-1.3 1-5.9 11.8-8.9l-8.5-8.2c-14.3 4.1-18.4 10.9-17 17.7"/><path class="st2" d="M13 164.8c.9 4.3 1 3.9 3.7 6.5 8.4 8.2 43.8-1 53.8-3.7l-8.6-11c-14.1 3.8-35 6.5-36.1 5.4-1.4-1.3 2-3.7 12.8-6.7l-8.5-8.2C15.7 151.2 11.6 158 13 164.8"/><path class="st18" d="M38.5 155.3l-8.4-8.2"/><path class="st6" d="M62.4 156.1l4.7-7.1c.3-.5 1-.7 1.5-.4.6.3.8 1 .5 1.5l-1.7 3.9.4 3.8-5-.1c-.5-.4-.7-1-.4-1.6"/><defs><path id="SVGID_1_" d="M64.8 157.6l.3-9.2 4.2.2-.3 9.2z"/></defs><clipPath id="SVGID_2_"><use xlink:href="#SVGID_1_" overflow="visible"/></clipPath><path class="st19" d="M67.9 157.7l-.2-1.5"/><defs><path id="SVGID_3_" d="M64.8 157.6l.3-9.2 4.2.2-.3 9.2z"/></defs><clipPath id="SVGID_4_"><use xlink:href="#SVGID_3_" overflow="visible"/></clipPath><path class="st20" d="M69.3 149.6c0 .2 0 .3-.1.5l-1.7 3.9.1 1.2.1 1.1.2 1.5-3-.3 3.8-8.8c.2.1.4.3.5.4 0 0 .1.3.1.5"/><path class="st6" d="M73.8 159.5l10.3-2.5c.6-.2 1-.8.8-1.4-.2-.6-.8-1-1.4-.9l-10.3 2.5c-.6.2-1 .8-.8 1.4.2.7.8 1 1.4.9M74.8 163.2l9.4-2.3c.6-.2 1-.8.8-1.4-.2-.6-.8-1-1.4-.9l-9.4 2.3c-.6.2-1 .8-.8 1.4.1.6.8 1 1.4.9M75.7 166.5l7.1-1.7c.6-.2 1-.8.8-1.4-.2-.6-.8-1-1.4-.9l-7.1 1.7c-.6.2-1 .8-.8 1.4.1.7.7 1.1 1.4.9"/><path class="st6" d="M72.6 153.5l.6 2.2c-.5.1-.7.6-.6 1 .1.5.6.7 1 .6l.5 1.9c-.5.1-.7.6-.6 1 .1.5.6.7 1 .6l.5 1.8c-.5.1-.7.6-.6 1 .1.5.6.7 1 .6l.5 2-19.3 4.8-5.4-11.9"/><path class="st6" d="M72.9 155.8l9.4-2.3c.6-.2 1-.8.8-1.4-.2-.6-.8-1-1.4-.9l-9.4 2.3c-.6.2-1 .8-.8 1.4.1.7.8 1.1 1.4.9"/></g><path class="st4" d="M146.1 131l3.3 4.4v6.1l8.2-8z"/><path class="st21" d="M149.4 135.4v6.1l8.2-8"/></svg>