<?xml version="1.0" encoding="utf-8"?>
<!-- Generator: Adobe Illustrator 19.2.0, SVG Export Plug-In . SVG Version: 6.00 Build 0)  -->
<svg version="1.1" id="Layer_1" xmlns="http://www.w3.org/2000/svg" xmlns:xlink="http://www.w3.org/1999/xlink" x="0px" y="0px"
	 viewBox="0 0 250 250" style="enable-background:new 0 0 250 250;" xml:space="preserve">
<style type="text/css">
	.st0{opacity:6.000000e-02;fill:#1B75BB;}
	.st1{fill:#808184;}
	.st2{fill:#A6A8AB;}
	.st3{fill:#444445;}
	.st4{fill:#020202;}
	.st5{fill:none;stroke:#020202;stroke-width:3;stroke-linecap:round;stroke-miterlimit:10;stroke-dasharray:1,6;}
	.st6{fill:#FFFFFF;}
	.st7{fill:#F6921E;}
	.st8{fill:#929497;}
	.st9{fill:none;stroke:#6D6E70;stroke-miterlimit:10;}
	.st10{fill:#434243;}
	.st11{fill:#383838;}
	.st12{fill:#E1DFDF;}
	.st13{fill:#CCAC8E;}
	.st14{fill:#282827;}
	.st15{fill:#DAB38E;}
	.st16{fill:none;}
	.st17{fill:#E1C09E;}
	.st18{fill:#F2E7DA;}
	.st19{fill:#DCD0C6;}
	.st20{fill:#C5A281;}
	.st21{fill:#ABB137;}
	.st22{fill:#FAF1EA;}
	.st23{clip-path:url(#SVGID_2_);}
	.st24{clip-path:url(#SVGID_4_);fill:#DAB38E;}
	.st25{fill:#333030;}
	.st26{fill:#DABE9E;}
	.st27{fill:#3D322A;}
	.st28{fill:#D8A981;}
	.st29{clip-path:url(#SVGID_6_);fill:#2F2720;}
	.st30{fill:#D4A980;}
	.st31{fill:#424143;}
	.st32{fill:#CCCBCB;}
	.st33{fill:#AF9B96;}
	.st34{fill:#2A2B2A;}
	.st35{fill:none;stroke:#231F20;stroke-width:8;stroke-miterlimit:10;}
	.st36{fill:none;stroke:#231F20;stroke-width:2;stroke-miterlimit:10;}
	.st37{fill:#F05A28;}
	.st38{fill:#231F20;}
	.st39{fill:#C4D02E;}
	.st40{clip-path:url(#SVGID_8_);}
	.st41{clip-path:url(#SVGID_10_);fill:#DAB38E;}
	.st42{clip-path:url(#SVGID_12_);fill:#2F2720;}
	.st43{clip-path:url(#SVGID_14_);fill:#E1DFDF;}
	.st44{clip-path:url(#SVGID_14_);fill:#CCAC8E;}
	.st45{clip-path:url(#SVGID_14_);fill:#B0BC36;}
	.st46{clip-path:url(#SVGID_16_);}
	.st47{clip-path:url(#SVGID_18_);fill:#B0BC36;}
	.st48{clip-path:url(#SVGID_20_);fill:#DAB38E;}
	.st49{clip-path:url(#SVGID_22_);fill:#ABB137;}
	.st50{clip-path:url(#SVGID_24_);fill:#DAB38E;}
	.st51{fill:#A31D2C;}
	.st52{fill:#BE1E2D;}
	.st53{fill:#821D2D;}
	.st54{font-family:'Roboto-Medium';}
	.st55{font-size:8.7891px;}
	.st56{fill:#37B34A;}
</style>
<g>
	<circle class="st0" cx="125" cy="125" r="125"/>
	<path class="st1" d="M214.7,212.1H35.3C58,235.5,89.8,250,125,250C160.2,250,192,235.5,214.7,212.1z"/>
	<g>
		<path class="st2" d="M250,125c0-5.5-0.4-10.8-1-16.1l-4.6,7.2c-2.4,3.8-6.4,6.4-10.9,7.1l-105,15.8c-3,0.5-5.5,2.7-6.2,5.7
			l-0.1,0.5l-5.9,24.3l-1,23.8l114,0.7C242.4,174.2,250,150.5,250,125z"/>
		<path class="st3" d="M240.9,171.9c-5.9-11.6-18-19.5-31.9-19.5c-19.8,0-35.8,16-35.8,35.8c0,1.9,0.1,3.7,0.4,5.5l55.6,0.4
			C233.8,187.1,237.7,179.7,240.9,171.9z"/>
		<path class="st4" d="M238.6,177.2c-4.5-12-16-20.6-29.6-20.6c-17.4,0-31.5,14.1-31.5,31.5c0,16.6,12.9,30.3,29.2,31.4
			C220.2,208,231.1,193.5,238.6,177.2z"/>
		<circle class="st2" cx="209" cy="188.1" r="18.3"/>
		<circle class="st5" cx="209" cy="188.1" r="3.2"/>
		<path class="st6" d="M122.2,145.1h11.3c0,0,5.5-0.4,5,5.3c-0.5,5.7-1.6,13.9-1.6,13.9l-20.2,3.4L122.2,145.1z"/>
		<path class="st7" d="M133.5,145.1c0,0,5.5-0.4,5,5.3c-0.5,5.7-1.6,13.9-1.6,13.9l-7.9,1.3"/>
		<path class="st8" d="M137.3,193.3h-20.4c-3.7,0-6.7-3-6.7-6.7v-9c0-3.7,3-6.7,6.7-6.7h20.4c3.7,0,6.7,3,6.7,6.7v9
			C144,190.3,141,193.3,137.3,193.3z"/>
		<path class="st9" d="M233.5,123.2c0,0-0.1,6.4-6.1,7.3c-6,0.9-98.4,14.6-98.4,14.6l-6.8,0"/>
	</g>
	<path class="st10" d="M162.3,223c-1.9,0-3.4-1.7-3.4-3.7v-61.5c0-2.1,1.5-3.7,3.4-3.7c1.9,0,3.4,1.7,3.4,3.7v61.5
		C165.7,221.4,164.2,223,162.3,223"/>
	<path class="st10" d="M173.8,223c-1.9,0-3.4-1.7-3.4-3.7v-61.5c0-2.1,1.5-3.7,3.4-3.7c1.9,0,3.4,1.7,3.4,3.7v61.5
		C177.2,221.4,175.7,223,173.8,223"/>
	<path class="st10" d="M139.2,119.9c-0.7,8.3,2.8,16.4,9.6,21.4c0.4,0.3,1,0.5,1.4,0.6c1.4,0.3,3-0.2,4-1.4c1.3-1.7,1.5-3.6-0.2-4.9
		c-4.6-3.4-7.7-9.3-7.2-15c0.2-2.4,0.9-4.7,2.1-6.6l-6.4-4.2C140.6,112.8,139.5,116.3,139.2,119.9"/>
	<path class="st10" d="M165.1,98c-6.4-0.5-12.6,1.4-17.5,5.6c-2.1,1.8-3.8,3.8-5.2,6.1l6.4,4.2c3-5.4,9-8.8,15.6-8.3
		c2.1,0.2,3.9-1.4,4.1-3.5C168.8,100.1,167.2,98.2,165.1,98"/>
	<path class="st10" d="M192.9,109.9l-6.4,4.2c1.1,2,1.8,4.1,2,6.5c0.5,5.7-2.6,11.6-7.2,15c-1.7,1.3-1.4,3.2-0.2,4.9
		c0.9,1.3,2.5,1.8,4,1.4c0.5-0.1,1-0.3,1.4-0.6c6.7-5,10.3-13,9.6-21.4C195.8,116.3,194.7,112.9,192.9,109.9"/>
	<path class="st10" d="M187.7,103.6c-4.9-4.1-11.1-6.1-17.5-5.6c-2.1,0.2-3.7,2-3.5,4.1c0.2,2.1,2,3.7,4.1,3.5
		c6.6-0.6,12.6,2.9,15.7,8.4l6.4-4.2C191.5,107.5,189.8,105.4,187.7,103.6"/>
	<path class="st11" d="M182.9,116.4l0.1-0.1v-7.6c0-7.6-6.2-13.8-13.8-13.8h-2.5c-7.6,0-13.8,6.2-13.8,13.8v36.7
		c0,7.6,6.2,13.8,13.8,13.8h2.5c7.6,0,13.8-6.2,13.8-13.8v-29.1L182.9,116.4"/>
	<path class="st12" d="M153,141.5C153,141.5,153,141.5,153,141.5l-0.1,3.1l0.1,0V141.5 M152.9,134.5v0.2c0,0,0,0,0.1,0L152.9,134.5
		C153,134.5,153,134.5,152.9,134.5"/>
	<path class="st13" d="M153,141.5C153,141.5,153,141.5,153,141.5C153,141.5,153,141.5,153,141.5"/>
	<path class="st14" d="M153,134.5v0.2c0.3,0.3,0.6,0.5,1,0.8c0.8,0.6,1.1,1.3,1.2,2.1v0.4c0,0.8-0.4,1.7-1,2.4
		c-0.3,0.4-0.7,0.8-1.2,1v3.2l2.8,0.7c0.1,0,0.1,0,0.2,0h0.1c0.4,0,0.7-0.3,0.8-0.6l0,0c0.1-0.3-0.1-0.7-0.3-0.9l0.3-1.1
		c0.3,0,0.6-0.3,0.7-0.6l0,0c0.1-0.3-0.1-0.7-0.3-0.9l0.3-1.1h0c0.4,0,0.7-0.3,0.8-0.6l0,0c0.1-0.4-0.1-0.8-0.4-0.9l0.3-1.1
		c0.4,0,0.7-0.3,0.8-0.6l0,0c0,0,0-0.1,0-0.1v-0.2c0-0.3-0.3-0.6-0.6-0.7l-0.3-0.1l-3.5-0.9l-1-0.3
		C153.2,134.6,153.1,134.5,153,134.5"/>
	<path class="st14" d="M182.5,134.6l-1,0.2l-3.8,0.9c-0.3,0.1-0.6,0.4-0.6,0.7v0.2c0,0,0,0.1,0,0.1l0,0c0.1,0.4,0.4,0.6,0.8,0.6
		l0.3,1.1c-0.3,0.2-0.5,0.5-0.4,0.9l0,0c0.1,0.4,0.4,0.6,0.8,0.6h0l0.3,1.1c-0.3,0.2-0.4,0.5-0.3,0.9l0,0c0.1,0.3,0.4,0.6,0.7,0.6
		l0.3,1.1c-0.3,0.2-0.4,0.5-0.3,0.9l0,0c0.1,0.4,0.4,0.6,0.8,0.6h0.1c0.1,0,0.1,0,0.2,0l0.2-0.1l2.6-0.6v-2.8
		c-0.7-0.2-1.3-0.7-1.8-1.3c-0.6-0.8-1-1.7-1-2.5v-0.2c0-0.8,0.4-1.5,1.2-2.1C181.7,135.2,182.1,134.9,182.5,134.6"/>
	<path class="st15" d="M184.6,133c-0.2,0-0.4,0-0.6,0.1c-0.3,0.3-0.6,0.6-0.9,0.9v7.7c0.4,0.1,0.8,0.2,1.1,0.2c0.3,0,0.6,0,0.9-0.1
		c0.3-0.1,0.6-0.1,0.9-0.3c0.1,0,0.2-0.1,0.3-0.2c0.1,0,0.1-0.1,0.2-0.1c0.9-0.7,1.8-1.4,2.6-2.2v0c-0.2-0.8-0.7-1.6-1.2-2.6
		C186.9,134.6,186,133,184.6,133"/>
	<rect x="180.1" y="133" class="st16" width="9" height="8.9"/>
	<path class="st17" d="M178.3,139.3L178.3,139.3c-0.2-0.4-0.1-0.8,0.2-1l-0.5-1c-0.4,0.1-0.7-0.1-0.9-0.4l0,0
		c-0.2-0.4-0.1-0.9,0.3-1.1l0.3-0.2l1.2-0.6l2-1.1l0.9-0.5c2.4-1.3,3.4,0.7,4.7,3.1c1.3,2.4,2.3,4.3-0.1,5.6l-0.9,0.5l-0.4,0.2
		l-2.8,1.5l-0.2,0.1c-0.4,0.2-0.9,0.1-1.1-0.3l0,0c-0.2-0.3-0.1-0.7,0.1-0.9l-0.5-1c-0.3,0-0.7-0.1-0.8-0.4l0,0
		c-0.2-0.3-0.1-0.7,0.1-0.9l-0.5-1C178.9,139.8,178.5,139.7,178.3,139.3"/>
	<path class="st18" d="M148.8,141.3c0.2,0.2,0.5,0.3,0.7,0.3C149.3,141.6,149.1,141.5,148.8,141.3 M151.3,133.1
		c0.5,0.6,1.1,1.1,1.6,1.6v0C152.4,134.2,151.8,133.7,151.3,133.1C151.3,133.1,151.3,133.1,151.3,133.1"/>
	<path class="st15" d="M150.8,133L150.8,133c-1.5,0-2.3,1.6-3.3,3.5c-0.5,1-1,1.8-1.2,2.6c0.8,0.8,1.6,1.5,2.5,2.2
		c0,0,0.1,0,0.1,0.1c0.2,0.2,0.5,0.3,0.7,0.3c0.2,0.1,0.4,0.1,0.6,0.2c0.3,0.1,0.5,0.1,0.8,0.1h0.2c0.6,0,1.2-0.2,1.8-0.5v-6.8
		c-0.6-0.5-1.1-1-1.6-1.6C151.1,133,150.9,133,150.8,133"/>
	<path class="st19" d="M152.9,134.7L152.9,134.7C153,134.7,153,134.7,152.9,134.7L152.9,134.7C153,134.7,153,134.7,152.9,134.7"/>
	<path class="st20" d="M152.9,134.7v6.8c0,0,0,0,0.1,0L152.9,134.7C153,134.7,153,134.7,152.9,134.7"/>
	<path class="st21" d="M153,134.8v6.7c0.4-0.3,0.8-0.6,1.2-1c0.6-0.8,1-1.6,1-2.4v-0.4c0-0.8-0.4-1.5-1.2-2.1
		C153.6,135.3,153.3,135,153,134.8"/>
	<path class="st17" d="M157,139.3L157,139.3c0.2-0.4,0.1-0.8-0.2-1l0.5-1c0.4,0.1,0.7-0.1,0.9-0.4l0,0c0.2-0.4,0.1-0.9-0.3-1.1
		l-0.3-0.2l-1.2-0.6l-2-1.1l-0.9-0.5c-2.4-1.3-3.4,0.7-4.7,3.1c-1.3,2.4-2.3,4.3,0.1,5.6l1.3,0.7l2.8,1.5l0.2,0.1
		c0.4,0.2,0.9,0.1,1.1-0.3l0,0c0.2-0.3,0.1-0.7-0.1-0.9l0.5-1c0.3,0,0.7-0.1,0.8-0.4l0,0c0.2-0.3,0.1-0.7-0.1-0.9l0.5-1
		C156.4,139.8,156.8,139.7,157,139.3"/>
	<path class="st22" d="M188.5,121.1c0.1,1.2,0,2.3-0.3,3.5v0C188.5,123.4,188.6,122.2,188.5,121.1 M188.3,119.5
		C188.3,119.6,188.3,119.6,188.3,119.5c0,0.4,0.1,0.7,0.1,1C188.4,120.2,188.4,119.9,188.3,119.5"/>
	<polygon class="st6" points="162.7,96.1 168.1,120.5 173.5,96.1 	"/>
	<path class="st17" d="M173.5,88.8h-10.7v7.1h0l0,0.2c0,3,2.4,5.4,5.4,5.4s5.4-2.4,5.4-5.4l0-0.2h0V88.8"/>
	<g>
		<defs>
			<path id="SVGID_1_" d="M168,94c-1.8,0-3.5-0.2-5.2-0.6v2.5h0l0,0.2c0,3,2.4,5.4,5.4,5.4c3,0,5.4-2.4,5.4-5.4l0-0.2h0v-2.6
				C171.7,93.8,169.9,94,168,94"/>
		</defs>
		<clipPath id="SVGID_2_">
			<use xlink:href="#SVGID_1_"  style="overflow:visible;"/>
		</clipPath>
		<g class="st23">
			<defs>
				<rect id="SVGID_3_" x="-688.6" y="-213" width="1048.8" height="847.4"/>
			</defs>
			<clipPath id="SVGID_4_">
				<use xlink:href="#SVGID_3_"  style="overflow:visible;"/>
			</clipPath>
			<rect x="162.7" y="93.3" class="st24" width="10.7" height="8.1"/>
		</g>
	</g>
	<path class="st25" d="M190.7,61.7c0,19.3-9.5,10.5-22.4,10.5c-12.9,0-23.2,7.6-23.2-10.5c0-12.9,9.9-24.3,22.8-24.3
		C180.9,37.5,190.7,48.8,190.7,61.7"/>
	<path class="st26" d="M186.2,70.1c0-2.5,2-4.4,4.4-4.4c2.5,0,4.4,2,4.4,4.4c0,2.5-2,4.4-4.4,4.4C188.2,74.6,186.2,72.6,186.2,70.1"
		/>
	<path class="st17" d="M141.1,70.1c0-2.5,2-4.4,4.4-4.4c2.5,0,4.4,2,4.4,4.4c0,2.5-2,4.4-4.4,4.4C143.1,74.6,141.1,72.6,141.1,70.1"
		/>
	<path class="st17" d="M190.5,71.4c0,12.4-10.2,22.6-22.6,22.6s-22.6-10.2-22.6-22.6v-7.9c0-2.4,0.4-4.7,1.1-6.9
		c2.9-9.1,7.7-15.7,21.5-15.7S185.8,47,189,55.5c1,2.5,1.5,5.2,1.5,8V71.4"/>
	<path class="st27" d="M179.4,69.8c-0.6,0-1,0-1-0.5c0-0.6,0.5-1,1-1c0.6,0,1,0.5,1,1C180.4,69.8,180,69.8,179.4,69.8"/>
	<path class="st27" d="M156.6,69.8c-0.6,0-1,0-1-0.5c0-0.6,0.5-1,1-1c0.6,0,1,0.5,1,1C157.6,69.8,157.1,69.8,156.6,69.8"/>
	<path class="st28" d="M168,66.5L168,66.5c-1.4,0-2.4,1.2-2.5,2.7l-0.1,3.1c0,1.5,1,2.8,2.4,2.8h0.1c1.3,0,2.4-1.2,2.4-2.7l0.1-3.1
		C170.4,67.8,169.4,66.5,168,66.5C168,66.5,168,66.5,168,66.5"/>
	<g>
		<defs>
			<rect id="SVGID_5_" x="153.3" y="38.1" width="29.2" height="7"/>
		</defs>
		<clipPath id="SVGID_6_">
			<use xlink:href="#SVGID_5_"  style="overflow:visible;"/>
		</clipPath>
		<path class="st29" d="M167.7,38.1c-2.5,0-4.6,0.1-6.3,0.4c-3,1-5.8,2.6-8.1,4.7c0,0,0,0,0,0.1c0,0.4,0.5,0.7,1.4,1
			c3.1-2.1,7.4-3.2,13.2-3.2c6.9,0,11.3,1.5,14.5,4.1h0.1v-1.6C182.3,43.3,175.7,38.1,167.7,38.1"/>
	</g>
	<path class="st30" d="M168,41c-5.8,0-10.1,1.2-13.2,3.2c1.8,0.5,5.2,0.8,10.1,0.8h17.6C179.3,42.5,174.8,41,168,41"/>
	<path class="st25" d="M181.3,42.2c0,1.9,1.9,1.6,1.9,1.6h-17.7c-7.4,0-11.5-0.7-11.5-1.8c0-1.1,1-5.1,14.4-5.1
		C176.5,36.8,181.3,42.2,181.3,42.2"/>
	<path class="st31" d="M155.9,75.3c-2.1-0.2-3.7-1.1-4.6-2.5c-2.2-3.3-0.5-8.5-0.5-8.7l0.2-0.6l12.4-0.1l0.1,0.7
		c0,0.2,1.1,6-1.6,9.2c-1.2,1.5-3,2.2-5.3,2.1C156.3,75.4,156.1,75.4,155.9,75.3 M152.2,65.2c-0.3,1.3-0.9,4.6,0.4,6.7
		c0.8,1.2,2.1,1.8,4,1.8c1.8,0.1,3.1-0.4,4-1.5c1.8-2,1.5-5.6,1.4-7.1L152.2,65.2z"/>
	<path class="st31" d="M178,75.2c-2.1-0.2-3.7-1.1-4.6-2.5c-2.2-3.3-0.5-8.5-0.5-8.7l0.2-0.6l12.4-0.1l0.1,0.7c0,0.2,1.1,6-1.6,9.2
		c-1.2,1.5-3,2.2-5.3,2.1C178.4,75.2,178.2,75.2,178,75.2 M174.3,65c-0.3,1.3-0.9,4.6,0.4,6.7c0.8,1.2,2.1,1.8,4,1.8
		c1.8,0.1,3.1-0.4,4-1.5c1.8-2.1,1.5-5.6,1.4-7.1L174.3,65z"/>
	<path class="st31" d="M162.9,68.9l-0.3-0.1c-0.4-0.2-0.6-0.7-0.4-1.1c0.1-0.2,2-3.8,6.2-3.8c3.5,0,5.1,3.1,5.4,4.7
		c0.1,0.4-0.2,0.9-0.6,1c-0.4,0.1-0.9-0.2-1-0.6c0-0.1-0.8-3.4-3.8-3.4c-3.2,0-4.7,2.8-4.7,2.9C163.5,68.8,163.2,69,162.9,68.9"/>
	<path class="st31" d="M150.5,68.8c-0.2,0-0.4-0.1-0.5-0.2l-5.1-1.3c-0.3-0.3-0.3-0.8,0-1.2c0.3-0.3,0.8-0.3,1.2,0l5.1,1.3
		c0.3,0.3,0.3,0.8,0,1.2C151,68.7,150.8,68.8,150.5,68.8"/>
	<path class="st31" d="M185.2,67.7c-0.4,0-0.8-0.4-0.7-0.9c0-0.5,0.4-0.8,0.9-0.8l4.8-1.5c0.4,0,0.8,0.4,0.8,0.9
		c0,0.5-0.4,0.8-0.9,0.8L185.2,67.7L185.2,67.7"/>
	<path class="st27" d="M168,84.3c-1.4,0-2.7-0.7-3.5-1.9c-0.2-0.2-0.1-0.6,0.2-0.7c0.2-0.2,0.6-0.1,0.7,0.2c0.6,0.9,1.5,1.4,2.6,1.4
		c1.1,0,2-0.5,2.6-1.4c0.2-0.2,0.5-0.3,0.7-0.2c0.2,0.2,0.3,0.5,0.2,0.7C170.7,83.6,169.4,84.3,168,84.3"/>
	<path class="st32" d="M171.2,101.4l-6,2.1l2.4,2.1l-0.7,9.5l1.2,5.3l1.5-7l-0.5-7.9 M171.2,101.4L171.2,101.4"/>
	<polyline class="st33" points="169.7,105 171,101.8 166.3,102.8 167.9,105.5 167.4,117.4 168.1,120.5 170.1,111.2 	"/>
	<polygon class="st34" points="173.8,96.8 177,111 173.8,113.9 174.9,115.9 165.7,133.9 168.1,120.5 173.3,96.8 	"/>
	<polygon class="st34" points="162.7,97.4 168.1,120.5 167.3,125 160.8,114.5 162.3,112 158.8,109.7 	"/>
	<g>
		<g>
			<circle class="st35" cx="58" cy="185.9" r="33.8"/>
			<circle class="st35" cx="58" cy="185.9" r="3.2"/>
			<g>
				<g>
					<line class="st36" x1="58" y1="152.1" x2="58" y2="182.7"/>
					<line class="st36" x1="58" y1="189.1" x2="58" y2="219.7"/>
				</g>
				<g>
					<line class="st36" x1="91.8" y1="185.9" x2="61.1" y2="185.9"/>
					<line class="st36" x1="54.8" y1="185.9" x2="24.2" y2="185.9"/>
				</g>
				<g>
					<line class="st36" x1="81.9" y1="162" x2="60.2" y2="183.7"/>
					<line class="st36" x1="55.8" y1="188.1" x2="34.1" y2="209.8"/>
				</g>
				<g>
					<line class="st36" x1="81.9" y1="209.8" x2="60.2" y2="188.1"/>
					<line class="st36" x1="55.8" y1="183.7" x2="34.1" y2="162"/>
				</g>
			</g>
			<g>
				<g>
					<line class="st36" x1="71.3" y1="154.8" x2="59.2" y2="183"/>
					<line class="st36" x1="56.7" y1="188.8" x2="44.6" y2="217"/>
				</g>
				<g>
					<line class="st36" x1="89.1" y1="199.3" x2="60.9" y2="187.2"/>
					<line class="st36" x1="55.1" y1="184.7" x2="26.9" y2="172.5"/>
				</g>
				<g>
					<line class="st36" x1="89.4" y1="173.4" x2="60.9" y2="184.7"/>
					<line class="st36" x1="55" y1="187.1" x2="26.6" y2="198.4"/>
				</g>
				<g>
					<line class="st36" x1="70.5" y1="217.3" x2="59.2" y2="188.8"/>
					<line class="st36" x1="56.8" y1="183" x2="45.5" y2="154.5"/>
				</g>
			</g>
		</g>
		
			<rect x="46.3" y="127.8" transform="matrix(0.9419 -0.3359 0.3359 0.9419 -50.1907 25.3072)" class="st37" width="3.5" height="60"/>
		<path class="st37" d="M1.5,144.2l39.3-7.7l-1-5.1l-39,7.7C1,140.8,1.2,142.5,1.5,144.2z"/>
		<path class="st37" d="M11.3,177.1l32.3-36l-3.9-3.5L9.1,171.8C9.8,173.6,10.5,175.3,11.3,177.1z"/>
		<path class="st35" d="M38.2,129.4l-4.1-8.3c0,0,18.7-6.9,21.7,2.4c3,9.3-8.6,12.2-8.6,12.2"/>
		
			<rect x="55.3" y="119.3" transform="matrix(0.8937 -0.4486 0.4486 0.8937 -48.1403 39.3571)" class="st38" width="7.4" height="4"/>
		
			<rect x="62.8" y="115.5" transform="matrix(0.9444 -0.3289 0.3289 0.9444 -36.9903 27.6314)" class="st38" width="0.8" height="15.4"/>
	</g>
	<path class="st17" d="M76,223c-1.8,0-3.2-1.5-3.2-3.5v-57.2c0-1.9,1.4-3.5,3.2-3.5c1.8,0,3.2,1.5,3.2,3.5v57.2
		C79.2,221.5,77.8,223,76,223"/>
	<path class="st17" d="M86.7,223c-1.8,0-3.2-1.5-3.2-3.5v-57.2c0-1.9,1.4-3.5,3.2-3.5s3.2,1.5,3.2,3.5v57.2
		C89.9,221.5,88.5,223,86.7,223"/>
	<rect x="82.3" y="158.9" class="st10" width="8.9" height="18.6"/>
	<rect x="71.6" y="158.9" class="st10" width="8.9" height="18.6"/>
	<path class="st17" d="M54.5,127.1c-0.7,7.8,2.6,15.2,8.9,19.9c0.4,0.3,0.9,0.4,1.3,0.5c1.3,0.3,2.8-0.2,3.7-1.3
		c1.2-1.6,1.4-3.4-0.2-4.5c-4.3-3.2-7.1-8.6-6.7-13.9c0.2-2.3,0.9-4.3,1.9-6.2l-6-3.9C55.9,120.5,54.8,123.7,54.5,127.1"/>
	<path class="st39" d="M78.6,106.7c-5.9-0.5-11.7,1.3-16.3,5.2c-1.9,1.6-3.5,3.6-4.8,5.7l6,3.9c2.8-5,8.4-8.2,14.5-7.7
		c2,0.2,3.7-1.3,3.8-3.2C82,108.6,80.6,106.9,78.6,106.7"/>
	<path class="st17" d="M104.5,117.7l-6,3.9c1,1.8,1.7,3.9,1.8,6.1c0.4,5.3-2.4,10.8-6.7,13.9c-1.6,1.2-1.3,3-0.2,4.5
		c0.9,1.2,2.3,1.7,3.7,1.3c0.5-0.1,1-0.2,1.3-0.5c6.3-4.6,9.6-12.1,8.9-19.9C107.2,123.7,106.2,120.5,104.5,117.7"/>
	<path class="st39" d="M99.6,111.9c-4.6-3.8-10.3-5.7-16.3-5.2c-2,0.2-3.4,1.9-3.2,3.8c0.2,2,1.9,3.4,3.8,3.2
		c6.2-0.5,11.8,2.7,14.6,7.8l6-3.9C103.2,115.5,101.6,113.6,99.6,111.9"/>
	<path class="st39" d="M95.2,123.8l0.1-0.1v-7.1c0-7.1-5.8-12.8-12.8-12.8h-2.3c-7.1,0-12.8,5.8-12.8,12.8v34.1
		c0,7.1,5.8,12.8,12.8,12.8h2.3c7.1,0,12.8-5.8,12.8-12.8v-27.1L95.2,123.8"/>
	<path class="st17" d="M86.4,98.1h-10v6.6h0l0,0.2c0,2.8,2.2,5,5,5c2.8,0,5-2.2,5-5l0-0.2h0V98.1"/>
	<g>
		<defs>
			<path id="SVGID_7_" d="M81.3,102.9c-1.7,0-3.3-0.2-4.9-0.6v2.3h0l0,0.2c0,2.8,2.2,5,5,5c2.8,0,5-2.2,5-5l0-0.2h0v-2.4
				C84.8,102.7,83.1,102.9,81.3,102.9"/>
		</defs>
		<clipPath id="SVGID_8_">
			<use xlink:href="#SVGID_7_"  style="overflow:visible;"/>
		</clipPath>
		<g class="st40">
			<defs>
				<rect id="SVGID_9_" x="-715.8" y="-182.8" width="976" height="788.6"/>
			</defs>
			<clipPath id="SVGID_10_">
				<use xlink:href="#SVGID_9_"  style="overflow:visible;"/>
			</clipPath>
			<rect x="76.4" y="102.3" class="st41" width="10" height="7.6"/>
		</g>
	</g>
	<path class="st25" d="M102.5,72.9c0,18-8.8,9.7-20.9,9.7c-12,0-21.6,7-21.6-9.7c0-12,9.2-22.6,21.2-22.6
		C93.3,50.3,102.5,60.9,102.5,72.9"/>
	<path class="st26" d="M98.3,80.7c0-2.3,1.8-4.1,4.1-4.1c2.3,0,4.1,1.9,4.1,4.1c0,2.3-1.8,4.1-4.1,4.1C100.1,84.9,98.3,83,98.3,80.7
		"/>
	<path class="st17" d="M56.3,80.7c0-2.3,1.8-4.1,4.1-4.1c2.3,0,4.1,1.9,4.1,4.1c0,2.3-1.9,4.1-4.1,4.1C58.2,84.9,56.3,83,56.3,80.7"
		/>
	<path class="st17" d="M102.3,81.9c0,11.5-9.4,21-21,21s-21-9.5-21-21v-7.3c0-2.2,0.4-4.4,1-6.4c2.7-8.4,7.2-14.6,20-14.6
		s16.6,5.6,19.6,13.5c0.9,2.3,1.4,4.8,1.4,7.5V81.9"/>
	<path class="st27" d="M92,80.4c-0.5,0-1,0-1-0.5c0-0.5,0.4-1,1-1c0.5,0,1,0.4,1,1C92.9,80.4,92.5,80.4,92,80.4"/>
	<path class="st27" d="M70.7,80.4c-0.5,0-1,0-1-0.5c0-0.5,0.4-1,1-1c0.5,0,1,0.4,1,1C71.7,80.4,71.2,80.4,70.7,80.4"/>
	<path class="st28" d="M81.4,77.4L81.4,77.4c-1.3,0-2.3,1.1-2.3,2.5L79,82.7c0,1.4,1,2.6,2.2,2.6h0.1c1.2,0,2.2-1.1,2.2-2.5l0.1-2.9
		C83.6,78.6,82.6,77.4,81.4,77.4C81.4,77.4,81.4,77.4,81.4,77.4"/>
	<g>
		<defs>
			<rect id="SVGID_11_" x="67.7" y="50.9" width="27.2" height="6.5"/>
		</defs>
		<clipPath id="SVGID_12_">
			<use xlink:href="#SVGID_11_"  style="overflow:visible;"/>
		</clipPath>
		<path class="st42" d="M81.1,50.9c-2.3,0-4.3,0.1-5.8,0.3c-2.8,0.9-5.4,2.4-7.6,4.4c0,0,0,0,0,0.1c0,0.4,0.5,0.7,1.3,0.9
			c2.9-1.9,6.9-3,12.3-3c6.4,0,10.6,1.4,13.5,3.8h0.1v-1.5C94.7,55.7,88.5,50.9,81.1,50.9"/>
	</g>
	<path class="st30" d="M81.3,53.6c-5.4,0-9.4,1.1-12.3,3c1.7,0.5,4.9,0.8,9.4,0.8h16.3C91.9,55,87.7,53.6,81.3,53.6"/>
	<path class="st25" d="M93.7,54.7c0,1.8,1.8,1.5,1.8,1.5H79c-6.9,0-10.7-0.7-10.7-1.7s0.9-4.8,13.4-4.8
		C89.2,49.7,93.7,54.7,93.7,54.7"/>
	<path class="st31" d="M70.1,85.6c-2-0.2-3.4-1-4.3-2.4c-2-3.1-0.5-7.9-0.4-8.1l0.2-0.5L77,74.5l0.1,0.6c0,0.2,1,5.5-1.5,8.5
		c-1.2,1.4-2.8,2-5,1.9C70.4,85.6,70.2,85.6,70.1,85.6 M66.6,76.1c-0.3,1.2-0.9,4.3,0.4,6.3c0.7,1.1,1.9,1.7,3.7,1.7
		c1.7,0.1,2.9-0.4,3.8-1.4c1.6-1.9,1.4-5.3,1.3-6.6L66.6,76.1z"/>
	<path class="st31" d="M90.6,85.4c-2-0.2-3.4-1-4.3-2.4c-2-3.1-0.5-7.9-0.4-8.1l0.2-0.5l11.5-0.1l0.1,0.6c0,0.2,1,5.5-1.5,8.5
		c-1.2,1.4-2.8,2-5,1.9C91,85.5,90.8,85.5,90.6,85.4 M87.2,76c-0.3,1.2-0.9,4.3,0.4,6.3c0.7,1.1,1.9,1.7,3.7,1.7
		c1.7,0.1,2.9-0.4,3.8-1.4c1.6-1.9,1.4-5.3,1.3-6.6L87.2,76z"/>
	<path class="st31" d="M76.6,79.6l-0.3-0.1c-0.4-0.2-0.5-0.6-0.3-1c0.1-0.1,1.8-3.5,5.7-3.6c3.2,0,4.7,2.9,5,4.4
		c0.1,0.4-0.2,0.8-0.6,0.9c-0.4,0.1-0.8-0.2-0.9-0.6c0-0.1-0.7-3.2-3.5-3.2c-3,0-4.3,2.6-4.4,2.7C77.2,79.5,76.9,79.6,76.6,79.6"/>
	<path class="st31" d="M65.1,79.5c-0.2,0-0.3-0.1-0.5-0.2L59.8,78c-0.3-0.3-0.3-0.8,0-1.1c0.3-0.3,0.8-0.3,1.1,0l4.8,1.2
		c0.3,0.3,0.3,0.8,0,1.1C65.5,79.4,65.3,79.5,65.1,79.5"/>
	<path class="st31" d="M97.4,78.5c-0.4,0-0.7-0.4-0.7-0.8c0-0.4,0.4-0.7,0.8-0.7l4.5-1.4c0.4,0,0.7,0.4,0.7,0.8
		c0,0.4-0.4,0.7-0.8,0.7L97.4,78.5L97.4,78.5"/>
	<path class="st27" d="M81.3,93.9c-1.3,0-2.5-0.7-3.2-1.8c-0.1-0.2-0.1-0.5,0.2-0.7c0.2-0.1,0.5-0.1,0.7,0.2
		c0.5,0.8,1.4,1.3,2.4,1.3c1,0,1.9-0.5,2.4-1.3c0.1-0.2,0.4-0.3,0.7-0.2c0.2,0.1,0.3,0.4,0.2,0.7C83.9,93.2,82.7,93.9,81.3,93.9"/>
	<g>
		<defs>
			<rect id="SVGID_13_" x="67.3" y="140.7" width="5.5" height="10"/>
		</defs>
		<clipPath id="SVGID_14_">
			<use xlink:href="#SVGID_13_"  style="overflow:visible;"/>
		</clipPath>
		<path class="st43" d="M67.4,147.1C67.4,147.1,67.3,147.1,67.4,147.1l-0.1,2.9l0.1,0V147.1 M67.3,140.7v0.2c0,0,0,0,0.1,0
			L67.3,140.7C67.4,140.7,67.3,140.7,67.3,140.7"/>
		<path class="st44" d="M67.4,147.1C67.4,147.1,67.3,147.1,67.4,147.1C67.3,147.1,67.4,147.1,67.4,147.1"/>
		<path class="st45" d="M67.4,140.7v0.2c0.3,0.3,0.6,0.5,0.9,0.7c0.7,0.5,1.1,1.2,1.1,1.9v0.3c0,0.7-0.4,1.5-0.9,2.3
			c-0.3,0.4-0.7,0.7-1.1,1v2.9l2.6,0.6c0.1,0,0.1,0,0.2,0h0.1c0.3,0,0.6-0.2,0.7-0.6l0,0c0.1-0.3-0.1-0.6-0.3-0.8l0.3-1
			c0.3,0,0.6-0.3,0.7-0.6l0,0c0.1-0.3-0.1-0.6-0.3-0.8l0.2-1c0,0,0,0,0,0c0.3,0,0.7-0.2,0.7-0.6l0,0c0.1-0.4-0.1-0.7-0.4-0.9l0.2-1
			c0.3,0,0.6-0.2,0.7-0.6l0,0c0,0,0-0.1,0-0.1v-0.2c0-0.3-0.3-0.6-0.6-0.6l-0.3-0.1l-3.2-0.8l-1-0.2
			C67.6,140.7,67.5,140.7,67.4,140.7"/>
	</g>
	<g>
		<defs>
			<polyline id="SVGID_15_" points="89.7,150.7 95.2,150.7 95.2,140.7 89.7,140.7 			"/>
		</defs>
		<clipPath id="SVGID_16_">
			<use xlink:href="#SVGID_15_"  style="overflow:visible;"/>
		</clipPath>
		<g class="st46">
			<defs>
				<rect id="SVGID_17_" x="-715.8" y="-182.8" width="976" height="788.6"/>
			</defs>
			<clipPath id="SVGID_18_">
				<use xlink:href="#SVGID_17_"  style="overflow:visible;"/>
			</clipPath>
			<path class="st47" d="M94.8,140.7l-0.9,0.2l-3.6,0.9c-0.3,0.1-0.5,0.4-0.6,0.7v0.1c0,0,0,0.1,0,0.1l0,0c0.1,0.3,0.4,0.6,0.7,0.6
				l0.2,1c-0.3,0.2-0.5,0.5-0.4,0.9l0,0c0.1,0.3,0.4,0.6,0.7,0.6c0,0,0,0,0,0l0.2,1c-0.3,0.2-0.4,0.5-0.3,0.8l0,0
				c0.1,0.3,0.4,0.5,0.7,0.6l0.3,1c-0.2,0.2-0.4,0.5-0.3,0.8l0,0c0.1,0.3,0.4,0.6,0.7,0.6h0.1c0.1,0,0.1,0,0.2,0l0.2-0.1l2.4-0.6
				v-2.7c-0.7-0.2-1.3-0.6-1.7-1.2c-0.6-0.8-0.9-1.6-0.9-2.3v-0.2c0-0.7,0.4-1.4,1.1-2C94.1,141.3,94.4,141,94.8,140.7"/>
		</g>
	</g>
	<g>
		<defs>
			<rect id="SVGID_19_" x="92.6" y="139.3" width="8.4" height="8.3"/>
		</defs>
		<clipPath id="SVGID_20_">
			<use xlink:href="#SVGID_19_"  style="overflow:visible;"/>
		</clipPath>
		<path class="st48" d="M96.8,139.3c-0.2,0-0.4,0-0.6,0.1c-0.3,0.3-0.6,0.6-0.8,0.9v7.2c0.3,0.1,0.7,0.2,1.1,0.2
			c0.3,0,0.6,0,0.8-0.1c0.3-0.1,0.6-0.1,0.8-0.3c0.1,0,0.2-0.1,0.3-0.2c0.1,0,0.1-0.1,0.2-0.1c0.8-0.6,1.6-1.3,2.4-2v0
			c-0.2-0.7-0.7-1.5-1.1-2.4C98.9,140.8,98.1,139.3,96.8,139.3"/>
	</g>
	<g>
		<defs>
			<rect id="SVGID_21_" x="92.6" y="139.3" width="8.4" height="8.3"/>
		</defs>
		<clipPath id="SVGID_22_">
			<use xlink:href="#SVGID_21_"  style="overflow:visible;"/>
		</clipPath>
		<path class="st49" d="M95.2,140.7L95.2,140.7c-0.1,0-0.2,0-0.4,0.1l-0.1,0c-0.3,0.3-0.7,0.6-1.1,0.9c-0.7,0.6-1.1,1.2-1.1,2v0.2
			c0,0.8,0.4,1.6,0.9,2.3c0.4,0.6,1,1,1.7,1.2V140.7"/>
	</g>
	<path class="st17" d="M90.9,145.1L90.9,145.1c-0.2-0.3-0.1-0.7,0.2-1l-0.5-0.9c-0.3,0.1-0.7-0.1-0.8-0.4l0,0
		c-0.2-0.4-0.1-0.8,0.3-1l0.3-0.1l1.1-0.6l1.9-1l0.9-0.5c2.2-1.2,3.2,0.6,4.3,2.9c1.2,2.2,2.2,4-0.1,5.2l-0.9,0.5l-0.3,0.2l-2.6,1.4
		l-0.2,0.1c-0.4,0.2-0.8,0.1-1-0.3l0,0c-0.1-0.3-0.1-0.6,0.1-0.9l-0.5-1c-0.3,0-0.6-0.1-0.8-0.4l0,0c-0.2-0.3-0.1-0.6,0.1-0.9
		l-0.5-0.9C91.5,145.6,91.1,145.4,90.9,145.1"/>
	<path class="st18" d="M63.5,147c0.2,0.1,0.4,0.2,0.7,0.3C64,147.3,63.7,147.2,63.5,147 M65.8,139.3c0.5,0.5,1,1,1.5,1.5v0
		C66.8,140.4,66.3,139.9,65.8,139.3C65.8,139.3,65.8,139.3,65.8,139.3"/>
	<g>
		<defs>
			<rect id="SVGID_23_" x="61.1" y="139.3" width="8.3" height="8.3"/>
		</defs>
		<clipPath id="SVGID_24_">
			<use xlink:href="#SVGID_23_"  style="overflow:visible;"/>
		</clipPath>
		<path class="st50" d="M65.3,139.3L65.3,139.3c-1.4,0-2.2,1.5-3.1,3.2c-0.5,0.9-0.9,1.7-1.1,2.4c0.7,0.7,1.5,1.4,2.3,2
			c0,0,0.1,0,0.1,0.1c0.2,0.1,0.4,0.2,0.7,0.3c0.2,0.1,0.4,0.1,0.6,0.2c0.2,0.1,0.5,0.1,0.8,0.1h0.1c0.6,0,1.1-0.2,1.7-0.4v-6.3
			c-0.5-0.5-1.1-1-1.5-1.5C65.6,139.3,65.5,139.3,65.3,139.3"/>
	</g>
	<path class="st19" d="M67.3,140.8L67.3,140.8C67.3,140.9,67.4,140.9,67.3,140.8L67.3,140.8C67.4,140.9,67.3,140.9,67.3,140.8"/>
	<path class="st20" d="M67.3,140.8v6.3c0,0,0,0,0.1,0L67.3,140.8C67.4,140.9,67.3,140.9,67.3,140.8"/>
	<path class="st21" d="M67.4,140.9v6.2c0.4-0.2,0.8-0.6,1.1-1c0.5-0.7,0.9-1.5,0.9-2.3v-0.3c0-0.7-0.4-1.4-1.1-1.9
		C68,141.4,67.7,141.1,67.4,140.9"/>
	<path class="st17" d="M71.1,145.1L71.1,145.1c0.2-0.3,0.1-0.7-0.2-1l0.5-0.9c0.3,0.1,0.7-0.1,0.8-0.4l0,0c0.2-0.4,0.1-0.8-0.3-1
		l-0.3-0.1l-1.1-0.6l-1.9-1l-0.9-0.5c-2.2-1.2-3.2,0.6-4.3,2.9c-1.2,2.2-2.2,4,0.1,5.2l1.2,0.6l2.6,1.4l0.2,0.1
		c0.4,0.2,0.8,0.1,1-0.3l0,0c0.1-0.3,0.1-0.6-0.1-0.9l0.5-1c0.3,0,0.6-0.1,0.8-0.4l0,0c0.2-0.3,0.1-0.6-0.1-0.9l0.5-0.9
		C70.6,145.6,70.9,145.4,71.1,145.1"/>
	<path class="st22" d="M100.4,128.2c0,1.1,0,2.2-0.2,3.2v0C100.4,130.3,100.5,129.2,100.4,128.2 M100.3,126.7
		C100.3,126.7,100.3,126.8,100.3,126.7c0,0.3,0.1,0.6,0.1,0.9C100.4,127.3,100.3,127,100.3,126.7"/>
	<path class="st51" d="M115.9,69.7c0,2.7-9,3.1-20,3.1s-25.2-2.2-29.1-3.1c-2.6-0.6,18.1-2.6,29.1-2.6S115.9,67,115.9,69.7z"/>
	<path class="st52" d="M60,69.7c0-12.2,9.5-22.1,21.2-22.1s21.2,9.9,21.2,22.1"/>
	<path class="st53" d="M66.8,69.7c0,0,1.9-15.5,14.4-22.1c12.5,7.1,14.3,22.1,14.3,22.1H66.8z"/>
	<text transform="matrix(1 0 0 1 69.5649 30.6147)"><tspan x="0" y="0" class="st10 st54 st55">P</tspan><tspan x="4.9" y="0" class="st10 st54 st55">AS</tspan><tspan x="16" y="0" class="st10 st54 st55">T</tspan></text>
	<text transform="matrix(1 0 0 1 151.8867 30.6147)" class="st10 st54 st55">FUTURE</text>
	<g>
		<g>
			<rect x="110.5" y="93.9" class="st56" width="17.1" height="5.9"/>
		</g>
		<g>
			<g>
				<polygon class="st56" points="125.5,104.2 138.1,96.8 125.5,89.5 				"/>
			</g>
		</g>
	</g>
</g>
</svg>
